<svg width="17" height="16" viewBox="0 0 17 16" fill="none" xmlns="http://www.w3.org/2000/svg">
<path d="M11.9183 9.32499H1.36501C0.997009 9.32499 0.684175 9.19615 0.426509 8.93849C0.168842 8.68099 0.0400085 8.36815 0.0400085 7.99999C0.0400085 7.63182 0.168842 7.31899 0.426509 7.06149C0.684175 6.80382 0.997009 6.67499 1.36501 6.67499H11.9183L7.56951 2.32599C7.30351 2.06015 7.17234 1.74674 7.17601 1.38574C7.17951 1.0249 7.31426 0.71157 7.58026 0.445737C7.84626 0.196403 8.15968 0.0699036 8.52051 0.0662369C8.88134 0.0625702 9.19476 0.193737 9.46076 0.459737L16.0608 7.05974C16.1889 7.18807 16.2857 7.33407 16.351 7.49774C16.4162 7.66157 16.4488 7.82899 16.4488 7.99999C16.4488 8.17099 16.4162 8.3384 16.351 8.50224C16.2857 8.6659 16.1889 8.8119 16.0608 8.94024L9.44651 15.5542C9.18784 15.8131 8.87859 15.9425 8.51876 15.9425C8.15909 15.9425 7.84626 15.8131 7.58026 15.5542C7.31426 15.2884 7.18126 14.9732 7.18126 14.6087C7.18126 14.2442 7.31426 13.929 7.58026 13.663L11.9183 9.32499Z" fill="white"/>
</svg>
