<svg width="17" height="16" viewBox="0 0 17 16" fill="none" xmlns="http://www.w3.org/2000/svg">
<path d="M12.3978 9.32499H1.84453C1.47653 9.32499 1.1637 9.19615 0.906031 8.93849C0.648365 8.68099 0.519531 8.36815 0.519531 7.99999C0.519531 7.63182 0.648365 7.31899 0.906031 7.06149C1.1637 6.80382 1.47653 6.67499 1.84453 6.67499H12.3978L8.04903 2.32599C7.78303 2.06015 7.65187 1.74674 7.65553 1.38574C7.65903 1.0249 7.79378 0.71157 8.05978 0.445737C8.32578 0.196403 8.6392 0.0699036 9.00003 0.0662369C9.36087 0.0625702 9.67428 0.193737 9.94028 0.459737L16.5403 7.05974C16.6684 7.18807 16.7652 7.33407 16.8305 7.49774C16.8957 7.66157 16.9283 7.82899 16.9283 7.99999C16.9283 8.17099 16.8957 8.3384 16.8305 8.50224C16.7652 8.6659 16.6684 8.8119 16.5403 8.94024L9.92603 15.5542C9.66736 15.8131 9.35812 15.9425 8.99828 15.9425C8.63861 15.9425 8.32578 15.8131 8.05978 15.5542C7.79378 15.2884 7.66078 14.9732 7.66078 14.6087C7.66078 14.2442 7.79378 13.929 8.05978 13.663L12.3978 9.32499Z" fill="#F25A29"/>
</svg>
