<svg width="71" height="71" viewBox="0 0 71 71" fill="none" xmlns="http://www.w3.org/2000/svg">
<mask id="mask0_0_73" style="mask-type:alpha" maskUnits="userSpaceOnUse" x="0" y="0" width="71" height="71">
<rect width="71" height="71" fill="#D9D9D9"/>
</mask>
<g mask="url(#mask0_0_73)">
<path d="M64.0466 39.0851H57.4613C56.456 39.0851 55.6069 38.7389 54.9142 38.0467C54.2219 37.3539 53.8758 36.5049 53.8758 35.4996C53.8758 34.4942 54.2219 33.6452 54.9142 32.9524C55.6069 32.2602 56.456 31.9141 57.4613 31.9141H64.0466C65.0519 31.9141 65.9009 32.2602 66.5937 32.9524C67.2859 33.6452 67.6321 34.4942 67.6321 35.4996C67.6321 36.5049 67.2859 37.3539 66.5937 38.0467C65.9009 38.7389 65.0519 39.0851 64.0466 39.0851ZM49.9013 49.3231C50.5058 48.5214 51.2929 48.0503 52.2628 47.9098C53.2331 47.7697 54.1191 48.002 54.9208 48.6065L60.1556 52.5322C60.9573 53.1371 61.4284 53.9246 61.569 54.8944C61.7095 55.8642 61.4775 56.75 60.873 57.5517C60.2685 58.3815 59.4811 58.8667 58.5108 59.0072C57.5409 59.1477 56.6411 58.9158 55.8113 58.3113L50.5765 54.3427C49.7748 53.7382 49.3106 52.951 49.1839 51.9812C49.0577 51.0108 49.2968 50.1248 49.9013 49.3231ZM60.1556 18.467L54.9208 22.3927C54.1191 22.9972 53.2331 23.2294 52.2628 23.0894C51.2929 22.9488 50.5058 22.4777 49.9013 21.676C49.2968 20.8743 49.0508 19.9883 49.1632 19.0179C49.2756 18.0481 49.7467 17.2609 50.5765 16.6565L55.8535 12.6879C56.6828 12.0834 57.5757 11.8514 58.5322 11.9919C59.4883 12.1324 60.2685 12.6176 60.873 13.4474C61.4775 14.2491 61.7095 15.1349 61.569 16.1047C61.4284 17.0746 60.9573 17.862 60.1556 18.467ZM12.2402 45.796H10.5362C8.49104 45.6289 6.78457 44.7917 5.41684 43.2844C4.0491 41.7776 3.36523 40.0016 3.36523 37.9565V33.0427C3.36523 30.886 4.13268 29.0403 5.66756 27.5054C7.20244 25.9705 9.04819 25.2031 11.2048 25.2031H22.1188L32.7748 18.782C34.0957 17.9951 35.4146 17.9811 36.7315 18.7399C38.049 19.4987 38.7077 20.6403 38.7077 22.1649V48.8342C38.7077 50.3588 38.049 51.5004 36.7315 52.2593C35.4146 53.0181 34.0957 53.004 32.7748 52.2171L22.1188 45.796H20.3305V53.5839C20.3305 54.7006 19.9356 55.6542 19.1457 56.4446C18.3559 57.2344 17.4025 57.6294 16.2858 57.6294C15.1685 57.6294 14.2149 57.2344 13.425 56.4446C12.6352 55.6542 12.2402 54.7006 12.2402 53.5839V45.796ZM41.666 46.8315V24.1677C43.4154 25.4624 44.8083 27.0999 45.8447 29.08C46.8811 31.0596 47.3993 33.1995 47.3993 35.4996C47.3993 37.7997 46.8811 39.9395 45.8447 41.9191C44.8083 43.8993 43.4154 45.5367 41.666 46.8315Z" fill="white"/>
</g>
</svg>
