<svg width="40" height="40" viewBox="0 0 40 40" fill="none" xmlns="http://www.w3.org/2000/svg">
<mask id="mask0_0_539" style="mask-type:alpha" maskUnits="userSpaceOnUse" x="0" y="0" width="40" height="40">
<rect width="40" height="40" fill="#D9D9D9"/>
</mask>
<g mask="url(#mask0_0_539)">
<path d="M17.5956 22.176L14.6247 19.2048C14.225 18.8051 13.7263 18.6052 13.1285 18.6052C12.5307 18.6052 12.0318 18.8051 11.6318 19.2048C11.2321 19.6045 11.0361 20.1034 11.0439 20.7015C11.0519 21.2992 11.2558 21.798 11.6556 22.1977L16.0289 26.571C16.4778 27.0141 17.0015 27.2356 17.6001 27.2356C18.1988 27.2356 18.7196 27.0141 19.1626 26.571L28.226 17.5073C28.626 17.1076 28.826 16.6127 28.826 16.0227C28.826 15.4327 28.626 14.9379 28.226 14.5381C27.8263 14.1384 27.3275 13.9385 26.7297 13.9385C26.1319 13.9385 25.6332 14.1384 25.2335 14.5381L17.5956 22.176ZM19.9997 37.4677C17.5686 37.4677 15.2921 37.0099 13.1701 36.0944C11.0485 35.1788 9.20292 33.9362 7.63348 32.3665C6.06375 30.797 4.82112 28.9515 3.90556 26.8298C2.99 24.7079 2.53223 22.4313 2.53223 20.0002C2.53223 17.5691 2.99 15.2926 3.90556 13.1706C4.82112 11.049 6.06375 9.20341 7.63348 7.63396C9.20292 6.06424 11.0485 4.8216 13.1701 3.90605C15.2921 2.99049 17.5686 2.53271 19.9997 2.53271C22.4308 2.53271 24.7074 2.99049 26.8293 3.90605C28.951 4.8216 30.7965 6.06424 32.366 7.63396C33.9357 9.20341 35.1783 11.049 36.0939 13.1706C37.0094 15.2926 37.4672 17.5691 37.4672 20.0002C37.4672 22.4313 37.0094 24.7079 36.0939 26.8298C35.1783 28.9515 33.9357 30.797 32.366 32.3665C30.7965 33.9362 28.951 35.1788 26.8293 36.0944C24.7074 37.0099 22.4308 37.4677 19.9997 37.4677Z" fill="#11BCD3"/>
</g>
</svg>
