<svg width="30" height="36" viewBox="0 0 30 36" fill="none" xmlns="http://www.w3.org/2000/svg">
<path d="M10.1887 28.0708H19.8354C20.3548 28.0708 20.7899 27.8915 21.1407 27.5328C21.4915 27.1741 21.667 26.7351 21.667 26.2157C21.667 25.6964 21.4915 25.2613 21.1407 24.9105C20.7899 24.5596 20.3548 24.3842 19.8354 24.3842H10.1652C9.64584 24.3842 9.21074 24.5596 8.85988 24.9105C8.50905 25.2613 8.33363 25.6964 8.33363 26.2157C8.33363 26.7351 8.51298 27.1741 8.87167 27.5328C9.23036 27.8915 9.66938 28.0708 10.1887 28.0708ZM10.1887 21.4041H19.8354C20.3548 21.4041 20.7899 21.2248 21.1407 20.8661C21.4915 20.5074 21.667 20.0684 21.667 19.549C21.667 19.0297 21.4915 18.5946 21.1407 18.2438C20.7899 17.8929 20.3548 17.7175 19.8354 17.7175H10.1652C9.64584 17.7175 9.21074 17.8929 8.85988 18.2438C8.50905 18.5946 8.33363 19.0297 8.33363 19.549C8.33363 20.0684 8.51298 20.5074 8.87167 20.8661C9.23036 21.2248 9.66938 21.4041 10.1887 21.4041ZM5.28292 35.4676C4.05223 35.4676 3.00843 35.0391 2.15154 34.1822C1.29466 33.3253 0.866211 32.2815 0.866211 31.0508V4.94943C0.866211 3.71873 1.29466 2.67494 2.15154 1.81805C3.00843 0.96116 4.05223 0.532715 5.28292 0.532715H16.8409C17.4266 0.532715 17.9876 0.643522 18.5239 0.865133C19.0601 1.08674 19.5359 1.40529 19.9514 1.82076L27.8463 9.71567C28.2618 10.1311 28.5804 10.607 28.802 11.1432C29.0236 11.6795 29.1344 12.2405 29.1344 12.8262V31.0508C29.1344 32.2815 28.7059 33.3253 27.849 34.1822C26.9922 35.0391 25.9484 35.4676 24.7177 35.4676H5.28292ZM16.3843 11.0744C16.3843 11.6879 16.599 12.2094 17.0284 12.6387C17.4577 13.0681 17.9792 13.2828 18.5927 13.2828H24.7177L16.3843 4.94943V11.0744Z" fill="#0F3B5E"/>
</svg>
