<svg width="42" height="42" viewBox="0 0 42 42" fill="none" xmlns="http://www.w3.org/2000/svg">
<path fill-rule="evenodd" clip-rule="evenodd" d="M21.2568 0.387695C32.5711 0.387695 41.7568 9.57346 41.7568 20.8877C41.7568 32.2019 32.5711 41.3877 21.2568 41.3877C9.9426 41.3877 0.756836 32.2019 0.756836 20.8877C0.756836 9.57346 9.9426 0.387695 21.2568 0.387695ZM21.2568 8.0752C17.7772 8.0752 17.3409 8.08993 15.9742 8.15231C14.6105 8.21453 13.6791 8.43114 12.8641 8.74785C12.0216 9.07529 11.307 9.5134 10.5948 10.2257C9.88246 10.938 9.44435 11.6525 9.11691 12.495C8.8002 13.31 8.58367 14.2414 8.52137 15.6051C8.45907 16.9717 8.44434 17.4081 8.44434 20.8877C8.44434 24.3673 8.45907 24.8037 8.52137 26.1703C8.58367 27.534 8.8002 28.4654 9.11691 29.2804C9.44435 30.1229 9.88246 30.8374 10.5948 31.5498C11.307 32.2621 12.0216 32.7002 12.8641 33.0276C13.6791 33.3442 14.6105 33.5609 15.9742 33.6231C17.3409 33.6855 17.7772 33.7002 21.2568 33.7002C24.7365 33.7002 25.1728 33.6855 26.5394 33.6231C27.9032 33.5609 28.8345 33.3442 29.6495 33.0276C30.492 32.7002 31.2065 32.2621 31.9189 31.5498C32.6312 30.8374 33.0693 30.1229 33.3968 29.2804C33.7134 28.4654 33.93 27.534 33.9922 26.1703C34.0546 24.8037 34.0693 24.3673 34.0693 20.8877C34.0693 17.4081 34.0546 16.9717 33.9922 15.6051C33.93 14.2414 33.7134 13.31 33.3968 12.495C33.0693 11.6525 32.6312 10.938 31.9189 10.2257C31.2065 9.5134 30.492 9.07529 29.6495 8.74785C28.8345 8.43114 27.9032 8.21453 26.5394 8.15231C25.1728 8.08993 24.7365 8.0752 21.2568 8.0752ZM21.2568 10.3838C24.6779 10.3838 25.0831 10.3968 26.4342 10.4585C27.6834 10.5155 28.3618 10.7242 28.8132 10.8996C29.4114 11.132 29.8382 11.4097 30.2864 11.8581C30.7349 12.3064 31.0125 12.7333 31.2449 13.3313C31.4204 13.7828 31.6291 14.4611 31.6861 15.7103C31.7477 17.0614 31.7608 17.4666 31.7608 20.8877C31.7608 24.3088 31.7477 24.714 31.6861 26.0651C31.6291 27.3143 31.4204 27.9926 31.2449 28.4441C31.0125 29.0422 30.7349 29.469 30.2864 29.9173C29.8382 30.3657 29.4114 30.6434 28.8132 30.8758C28.3618 31.0512 27.6834 31.26 26.4342 31.3169C25.0834 31.3786 24.6782 31.3916 21.2568 31.3916C17.8355 31.3916 17.4304 31.3786 16.0795 31.3169C14.8302 31.26 14.1519 31.0512 13.7004 30.8758C13.1023 30.6434 12.6755 30.3657 12.2271 29.9173C11.7788 29.469 11.5012 29.0422 11.2688 28.4441C11.0933 27.9926 10.8846 27.3143 10.8275 26.0651C10.7659 24.714 10.7529 24.3088 10.7529 20.8877C10.7529 17.4666 10.7659 17.0614 10.8275 15.7103C10.8846 14.4611 11.0933 13.7828 11.2688 13.3313C11.5012 12.7333 11.7788 12.3064 12.2271 11.8581C12.6755 11.4097 13.1023 11.132 13.7004 10.8996C14.1519 10.7242 14.8302 10.5155 16.0795 10.4585C17.4305 10.3968 17.8357 10.3838 21.2568 10.3838ZM21.2568 14.3083C17.6231 14.3083 14.6775 17.254 14.6775 20.8877C14.6775 24.5214 17.6231 27.4671 21.2568 27.4671C24.8905 27.4671 27.8362 24.5214 27.8362 20.8877C27.8362 17.254 24.8905 14.3083 21.2568 14.3083ZM21.2568 25.1585C18.8981 25.1585 16.986 23.2464 16.986 20.8877C16.986 18.529 18.8981 16.6169 21.2568 16.6169C23.6155 16.6169 25.5276 18.529 25.5276 20.8877C25.5276 23.2464 23.6155 25.1585 21.2568 25.1585ZM29.6337 14.0484C29.6337 14.8975 28.9453 15.5858 28.0961 15.5858C27.2471 15.5858 26.5587 14.8975 26.5587 14.0484C26.5587 13.1992 27.2471 12.5109 28.0961 12.5109C28.9453 12.5109 29.6337 13.1992 29.6337 14.0484Z" fill="#0F3B5E"/>
</svg>
