<svg width="24" height="24" viewBox="0 0 24 24" fill="none" xmlns="http://www.w3.org/2000/svg">
<mask id="mask0_0_12" style="mask-type:alpha" maskUnits="userSpaceOnUse" x="0" y="0" width="24" height="24">
<rect width="24" height="24" fill="#D9D9D9"/>
</mask>
<g mask="url(#mask0_0_12)">
<g filter="url(#filter0_d_0_12)">
<path d="M6.1695 22.4378C5.44083 22.4378 4.817 22.1783 4.298 21.6593C3.779 21.1405 3.5195 20.5167 3.5195 19.7878V10.1271C3.5195 9.39824 3.779 8.77432 4.298 8.25532C4.817 7.73649 5.44083 7.47708 6.1695 7.47708H6.788V5.88682C6.788 4.42816 7.29433 3.18774 8.307 2.16557C9.31967 1.14341 10.5507 0.632324 12 0.632324C13.4493 0.632324 14.6803 1.14341 15.693 2.16557C16.7057 3.18774 17.212 4.42816 17.212 5.88682V7.47708H17.8305C18.5592 7.47708 19.183 7.73649 19.702 8.25532C20.221 8.77432 20.4805 9.39824 20.4805 10.1271V19.7878C20.4805 20.5167 20.221 21.1405 19.702 21.6593C19.183 22.1783 18.5592 22.4378 17.8305 22.4378H6.1695ZM6.1695 19.7878H17.8305V10.1271H6.1695V19.7878ZM12 16.9573C12.55 16.9573 13.0208 16.7615 13.4125 16.3698C13.8042 15.9782 14 15.5073 14 14.9573C14 14.4073 13.8042 13.9365 13.4125 13.5448C13.0208 13.1532 12.55 12.9573 12 12.9573C11.45 12.9573 10.9792 13.1532 10.5875 13.5448C10.1958 13.9365 10 14.4073 10 14.9573C10 15.5073 10.1958 15.9782 10.5875 16.3698C10.9792 16.7615 11.45 16.9573 12 16.9573ZM9.438 7.47708H14.562V5.88682C14.562 5.16332 14.3151 4.54841 13.8212 4.04207C13.3274 3.53557 12.7203 3.28232 12 3.28232C11.2797 3.28232 10.6726 3.53557 10.1788 4.04207C9.68492 4.54841 9.438 5.16332 9.438 5.88682V7.47708Z" fill="#0F3B5E"/>
</g>
</g>
<defs>
<filter id="filter0_d_0_12" x="-0.480499" y="0.632324" width="24.961" height="29.8057" filterUnits="userSpaceOnUse" color-interpolation-filters="sRGB">
<feFlood flood-opacity="0" result="BackgroundImageFix"/>
<feColorMatrix in="SourceAlpha" type="matrix" values="0 0 0 0 0 0 0 0 0 0 0 0 0 0 0 0 0 0 127 0" result="hardAlpha"/>
<feOffset dy="4"/>
<feGaussianBlur stdDeviation="2"/>
<feComposite in2="hardAlpha" operator="out"/>
<feColorMatrix type="matrix" values="0 0 0 0 0 0 0 0 0 0 0 0 0 0 0 0 0 0 0.25 0"/>
<feBlend mode="normal" in2="BackgroundImageFix" result="effect1_dropShadow_0_12"/>
<feBlend mode="normal" in="SourceGraphic" in2="effect1_dropShadow_0_12" result="shape"/>
</filter>
</defs>
</svg>
