<svg width="20" height="20" viewBox="0 0 20 20" fill="none" xmlns="http://www.w3.org/2000/svg">
<path d="M10.9994 9.58951V6.44283C10.9994 6.15988 10.9037 5.92269 10.7122 5.73126C10.5206 5.53983 10.2834 5.44412 10.0004 5.44412C9.71749 5.44412 9.48023 5.53983 9.28865 5.73126C9.09722 5.92269 9.0015 6.15988 9.0015 6.44283V9.96054C9.0015 10.1011 9.02717 10.2352 9.0785 10.3627C9.12984 10.4904 9.20684 10.6053 9.3095 10.7074L12.2467 13.6446C12.4331 13.831 12.6653 13.9242 12.9432 13.9242C13.2212 13.9242 13.4552 13.831 13.6451 13.6446C13.8352 13.4584 13.9302 13.2244 13.9302 12.9427C13.9302 12.6611 13.8352 12.4253 13.6451 12.2352L10.9994 9.58951ZM10.0004 19.3529C8.7032 19.3529 7.48602 19.1076 6.3489 18.6168C5.21162 18.1261 4.22238 17.4602 3.38119 16.6192C2.54015 15.778 1.87427 14.7888 1.38354 13.6515C0.892822 12.5144 0.647461 11.2972 0.647461 9.99995C0.647461 8.70271 0.892822 7.48553 1.38354 6.34841C1.87427 5.21113 2.54015 4.2219 3.38119 3.3807C4.22238 2.53966 5.21162 1.87378 6.3489 1.38306C7.48602 0.892334 8.7032 0.646973 10.0004 0.646973C11.2977 0.646973 12.5149 0.892334 13.652 1.38306C14.7893 1.87378 15.7785 2.53966 16.6197 3.3807C17.4607 4.2219 18.1266 5.21113 18.6173 6.34841C19.1081 7.48553 19.3534 8.70271 19.3534 9.99995C19.3534 11.2972 19.1081 12.5144 18.6173 13.6515C18.1266 14.7888 17.4607 15.778 16.6197 16.6192C15.7785 17.4602 14.7893 18.1261 13.652 18.6168C12.5149 19.1076 11.2977 19.3529 10.0004 19.3529Z" fill="white"/>
</svg>
