<svg width="43" height="42" viewBox="0 0 43 42" fill="none" xmlns="http://www.w3.org/2000/svg">
<circle cx="21.5952" cy="20.6938" r="20.6938" fill="#0F3B5E"/>
<path d="M33.1098 14.2634C32.8276 13.1572 31.9961 12.2861 30.9401 11.9904C29.0261 11.4531 21.3518 11.4531 21.3518 11.4531C21.3518 11.4531 13.6774 11.4531 11.7634 11.9904C10.7076 12.2861 9.87597 13.1572 9.59379 14.2634C9.08105 16.2684 9.08105 20.4518 9.08105 20.4518C9.08105 20.4518 9.08105 24.6351 9.59379 26.6399C9.87597 27.7461 10.7076 28.6174 11.7634 28.9131C13.6774 29.4502 21.3518 29.4502 21.3518 29.4502C21.3518 29.4502 29.0261 29.4502 30.9401 28.9131C31.9961 28.6174 32.8276 27.7461 33.1098 26.6399C33.6225 24.6351 33.6225 20.4518 33.6225 20.4518C33.6225 20.4518 33.6225 16.2684 33.1098 14.2634ZM18.8975 24.3083V16.5952L25.2734 20.4518L18.8975 24.3083Z" fill="white"/>
</svg>
